<svg version="1.1" id="Layer_2" xmlns="http://www.w3.org/2000/svg" xmlns:xlink="http://www.w3.org/1999/xlink" x="0px" y="0px" viewBox="0 0 50 50" style="enable-background:new 0 0 50 50;" xml:space="preserve"> <g> <path d="M32.6,44.6l-3.3-1.9L25,45.3l-5.9-3.4l13.1-7.6c2.2,1,4.7,0.2,6-1.9c1.3-2.1,0.7-4.8-1.3-6.3l0-2.1l-3.3-1.9l0,3.1 c-1.4,0.1-2.8,0.9-3.6,2.3c-0.8,1.4-0.9,3-0.2,4.4l-14,8.1l-8.7-5l0-9.3l3.8-2.2l0-3.8l-7.1,4.1l0,13.1L25,49L32.6,44.6z"></path> <path d="M38.4,8.2v3.8l4.4,2.5l0,6.8l-13.1-7.6c-0.3-2.4-2.2-4.2-4.6-4.2c-2.5,0-4.5,1.8-4.8,4.3l-1.8,1v3.8l2.7-1.5 c0.8,1.2,2.2,2,3.8,2c1.6,0,3.1-0.8,3.9-2l14,8.1l0,10l-8.1,4.7l-3.8-2.2l-3.3,1.9l7.1,4.1L46,36.9V12.6L38.4,8.2z"></path> <path d="M3.9,21.4l3.3-1.9l0-5l5.9-3.4l0,15.1c-1.9,1.4-2.5,4-1.4,6.1c1.2,2.2,3.9,3,6.1,2l1.8,1l3.3-1.9L20.2,32 c0.6-1.3,0.6-2.9-0.2-4.3c-0.8-1.4-2.2-2.3-3.7-2.4l0-16.1l8.6-5l8.1,4.7v4.4l3.3,1.9V7L25,0.4L3.9,12.6V21.4z"></path> </g> </svg>